<mxfile host="app.diagrams.net" modified="2023-02-28T08:39:44.408Z" agent="5.0 (X11; Linux x86_64) AppleWebKit/537.36 (KHTML, like Gecko) Chrome/109.0.0.0 Safari/537.36" etag="IlZBkWm1mEkZsrt6v8ID" version="20.8.20" type="github" pages="2">
  <diagram id="C5RBs43oDa-KdzZeNtuy" name="pipeline">
    <mxGraphModel dx="1434" dy="834" grid="1" gridSize="10" guides="1" tooltips="1" connect="1" arrows="1" fold="1" page="1" pageScale="1" pageWidth="827" pageHeight="1169" math="0" shadow="0">
      <root>
        <mxCell id="WIyWlLk6GJQsqaUBKTNV-0" />
        <mxCell id="WIyWlLk6GJQsqaUBKTNV-1" parent="WIyWlLk6GJQsqaUBKTNV-0" />
        <mxCell id="QXIA_VAwWtRALYvtrusa-0" value="BaseArtifactStore" style="swimlane;fontStyle=1;align=center;verticalAlign=top;childLayout=stackLayout;horizontal=1;startSize=26;horizontalStack=0;resizeParent=1;resizeParentMax=0;resizeLast=0;collapsible=1;marginBottom=0;" vertex="1" parent="WIyWlLk6GJQsqaUBKTNV-1">
          <mxGeometry x="180" y="70" width="480" height="150" as="geometry" />
        </mxCell>
        <mxCell id="QXIA_VAwWtRALYvtrusa-1" value="_meta: TArtifactMeta&#xa;&#xa;_ctx: TArtifactContext" style="text;strokeColor=none;fillColor=none;align=left;verticalAlign=top;spacingLeft=4;spacingRight=4;overflow=hidden;rotatable=0;points=[[0,0.5],[1,0.5]];portConstraint=eastwest;" vertex="1" parent="QXIA_VAwWtRALYvtrusa-0">
          <mxGeometry y="26" width="480" height="54" as="geometry" />
        </mxCell>
        <mxCell id="QXIA_VAwWtRALYvtrusa-2" value="" style="line;strokeWidth=1;fillColor=none;align=left;verticalAlign=middle;spacingTop=-1;spacingLeft=3;spacingRight=3;rotatable=0;labelPosition=right;points=[];portConstraint=eastwest;strokeColor=inherit;" vertex="1" parent="QXIA_VAwWtRALYvtrusa-0">
          <mxGeometry y="80" width="480" height="8" as="geometry" />
        </mxCell>
        <mxCell id="QXIA_VAwWtRALYvtrusa-3" value="__init__(self, meta: TArtifactMeta, context: TArtifactContext):&#xa;&#xa;_parse_temp_store(self, meta: TArtifactMeta, context: TArtifactContext): ？？？&#xa;&#xa;" style="text;strokeColor=none;fillColor=none;align=left;verticalAlign=top;spacingLeft=4;spacingRight=4;overflow=hidden;rotatable=0;points=[[0,0.5],[1,0.5]];portConstraint=eastwest;" vertex="1" parent="QXIA_VAwWtRALYvtrusa-0">
          <mxGeometry y="88" width="480" height="62" as="geometry" />
        </mxCell>
        <mxCell id="QXIA_VAwWtRALYvtrusa-4" value="FolderArtifactStore" style="swimlane;fontStyle=1;align=center;verticalAlign=top;childLayout=stackLayout;horizontal=1;startSize=26;horizontalStack=0;resizeParent=1;resizeParentMax=0;resizeLast=0;collapsible=1;marginBottom=0;" vertex="1" parent="WIyWlLk6GJQsqaUBKTNV-1">
          <mxGeometry x="119" y="330" width="600" height="390" as="geometry" />
        </mxCell>
        <mxCell id="QXIA_VAwWtRALYvtrusa-5" value="_meta: TArtifactMeta&#xa;&#xa;_ctx: TArtifactContext" style="text;strokeColor=none;fillColor=none;align=left;verticalAlign=top;spacingLeft=4;spacingRight=4;overflow=hidden;rotatable=0;points=[[0,0.5],[1,0.5]];portConstraint=eastwest;" vertex="1" parent="QXIA_VAwWtRALYvtrusa-4">
          <mxGeometry y="26" width="600" height="54" as="geometry" />
        </mxCell>
        <mxCell id="QXIA_VAwWtRALYvtrusa-6" value="" style="line;strokeWidth=1;fillColor=none;align=left;verticalAlign=middle;spacingTop=-1;spacingLeft=3;spacingRight=3;rotatable=0;labelPosition=right;points=[];portConstraint=eastwest;strokeColor=inherit;" vertex="1" parent="QXIA_VAwWtRALYvtrusa-4">
          <mxGeometry y="80" width="600" height="8" as="geometry" />
        </mxCell>
        <mxCell id="QXIA_VAwWtRALYvtrusa-7" value="mount(self): 根据meta属性决定挂载本地文件或OSS&#xa;&#xa;force_link(self, src: str, dst: str): 创建一个软链接，历史遗留问题，现在可以不用看&#xa;&#xa;mount_oss(self, oss_meta: OssFolderMeta): 挂载OSS，并根据读取模式做准备工作&#xa;&#xa;_oss_write_worker_master(self): direct write子进程调度函数，负责子进程的增加和停止）&#xa;&#xa;_oss_direct_write_worker(self): 实际完成direct write的子进程&#xa;&#xa;sync_writes(self): 保证队列里面的东西全部消费完？？？&#xa;&#xa;glob(self, pattern: str, prefix=&quot;&quot;, file_only=False): 在某一个目录下遍历搜索（本地文件或oss）&#xa;&#xa;atomic_update(self, subpath: str, process: Callable[[bytes], bytes], retry=6): 原子更新，用于多个runner写&#xa;同一个文件的情况，写文件之前先加锁，写完再删掉。&#xa;&#xa;append_log(self, subpath: str, position: Optional[int], logs: bytes): 读取某文件指定范围内的数据" style="text;strokeColor=none;fillColor=none;align=left;verticalAlign=top;spacingLeft=4;spacingRight=4;overflow=hidden;rotatable=0;points=[[0,0.5],[1,0.5]];portConstraint=eastwest;" vertex="1" parent="QXIA_VAwWtRALYvtrusa-4">
          <mxGeometry y="88" width="600" height="302" as="geometry" />
        </mxCell>
        <mxCell id="QXIA_VAwWtRALYvtrusa-8" value="OssQueue" style="swimlane;fontStyle=1;align=center;verticalAlign=top;childLayout=stackLayout;horizontal=1;startSize=26;horizontalStack=0;resizeParent=1;resizeParentMax=0;resizeLast=0;collapsible=1;marginBottom=0;" vertex="1" parent="WIyWlLk6GJQsqaUBKTNV-1">
          <mxGeometry x="840" y="450" width="510" height="180" as="geometry" />
        </mxCell>
        <mxCell id="QXIA_VAwWtRALYvtrusa-9" value="self.store&#xa;        self.subpath&#xa;        self.position" style="text;strokeColor=none;fillColor=none;align=left;verticalAlign=top;spacingLeft=4;spacingRight=4;overflow=hidden;rotatable=0;points=[[0,0.5],[1,0.5]];portConstraint=eastwest;" vertex="1" parent="QXIA_VAwWtRALYvtrusa-8">
          <mxGeometry y="26" width="510" height="54" as="geometry" />
        </mxCell>
        <mxCell id="QXIA_VAwWtRALYvtrusa-10" value="" style="line;strokeWidth=1;fillColor=none;align=left;verticalAlign=middle;spacingTop=-1;spacingLeft=3;spacingRight=3;rotatable=0;labelPosition=right;points=[];portConstraint=eastwest;strokeColor=inherit;" vertex="1" parent="QXIA_VAwWtRALYvtrusa-8">
          <mxGeometry y="80" width="510" height="8" as="geometry" />
        </mxCell>
        <mxCell id="QXIA_VAwWtRALYvtrusa-11" value="def queue_init(self):&#xa;&#xa;def queue_pull(self):&#xa;&#xa;def queue_put(self, obj: Any): 通过序列化写OSS文件实现，使用oss append的api（并发安全）&#xa;" style="text;strokeColor=none;fillColor=none;align=left;verticalAlign=top;spacingLeft=4;spacingRight=4;overflow=hidden;rotatable=0;points=[[0,0.5],[1,0.5]];portConstraint=eastwest;" vertex="1" parent="QXIA_VAwWtRALYvtrusa-8">
          <mxGeometry y="88" width="510" height="92" as="geometry" />
        </mxCell>
        <mxCell id="QXIA_VAwWtRALYvtrusa-12" value="待问：&lt;br&gt;&lt;ol&gt;&lt;li style=&quot;text-align: left;&quot;&gt;&lt;br&gt;&lt;/li&gt;&lt;/ol&gt;" style="text;html=1;strokeColor=none;fillColor=none;align=center;verticalAlign=middle;whiteSpace=wrap;rounded=0;" vertex="1" parent="WIyWlLk6GJQsqaUBKTNV-1">
          <mxGeometry x="827" y="50" width="370" height="170" as="geometry" />
        </mxCell>
      </root>
    </mxGraphModel>
  </diagram>
  <diagram id="4tBroP06ard_kNPbEn_R" name="第 2 页">
    <mxGraphModel dx="1434" dy="834" grid="1" gridSize="10" guides="1" tooltips="1" connect="1" arrows="1" fold="1" page="1" pageScale="1" pageWidth="827" pageHeight="1169" math="0" shadow="0">
      <root>
        <mxCell id="0" />
        <mxCell id="1" parent="0" />
        <mxCell id="Bu4tqk1s5aV7CT5vhAS4-1" value="&lt;font style=&quot;font-size: 16px;&quot;&gt;Pipeline&lt;/font&gt;" style="swimlane;html=1;childLayout=stackLayout;startSize=40;rounded=0;shadow=0;comic=0;labelBackgroundColor=none;strokeWidth=1;fontFamily=Verdana;fontSize=12;align=center;" vertex="1" parent="1">
          <mxGeometry x="160" y="10" width="940" height="1020" as="geometry">
            <mxRectangle x="160" y="10" width="80" height="30" as="alternateBounds" />
          </mxGeometry>
        </mxCell>
        <mxCell id="Bu4tqk1s5aV7CT5vhAS4-2" value="&lt;font style=&quot;font-size: 15px;&quot;&gt;Github Agent&lt;/font&gt;" style="swimlane;html=1;startSize=20;" vertex="1" parent="Bu4tqk1s5aV7CT5vhAS4-1">
          <mxGeometry y="40" width="310" height="980" as="geometry" />
        </mxCell>
        <mxCell id="Bu4tqk1s5aV7CT5vhAS4-158" value="" style="ellipse;html=1;shape=startState;fillColor=#000000;strokeColor=#ff0000;" vertex="1" parent="Bu4tqk1s5aV7CT5vhAS4-2">
          <mxGeometry x="100" y="40" width="30" height="30" as="geometry" />
        </mxCell>
        <mxCell id="Bu4tqk1s5aV7CT5vhAS4-159" value="" style="edgeStyle=orthogonalEdgeStyle;html=1;verticalAlign=bottom;endArrow=open;endSize=8;strokeColor=#ff0000;rounded=0;" edge="1" source="Bu4tqk1s5aV7CT5vhAS4-158" parent="Bu4tqk1s5aV7CT5vhAS4-2">
          <mxGeometry relative="1" as="geometry">
            <mxPoint x="115" y="90" as="targetPoint" />
          </mxGeometry>
        </mxCell>
        <mxCell id="Bu4tqk1s5aV7CT5vhAS4-162" value="" style="edgeStyle=orthogonalEdgeStyle;rounded=0;orthogonalLoop=1;jettySize=auto;html=1;" edge="1" parent="Bu4tqk1s5aV7CT5vhAS4-2" source="Bu4tqk1s5aV7CT5vhAS4-160" target="Bu4tqk1s5aV7CT5vhAS4-161">
          <mxGeometry relative="1" as="geometry" />
        </mxCell>
        <mxCell id="Bu4tqk1s5aV7CT5vhAS4-160" value="PR" style="html=1;" vertex="1" parent="Bu4tqk1s5aV7CT5vhAS4-2">
          <mxGeometry x="60" y="90" width="110" height="50" as="geometry" />
        </mxCell>
        <mxCell id="Bu4tqk1s5aV7CT5vhAS4-185" value="" style="edgeStyle=orthogonalEdgeStyle;rounded=0;orthogonalLoop=1;jettySize=auto;html=1;fontSize=12;" edge="1" parent="Bu4tqk1s5aV7CT5vhAS4-2" source="Bu4tqk1s5aV7CT5vhAS4-161" target="Bu4tqk1s5aV7CT5vhAS4-184">
          <mxGeometry relative="1" as="geometry" />
        </mxCell>
        <mxCell id="Bu4tqk1s5aV7CT5vhAS4-161" value="github action" style="html=1;fillColor=rgb(255, 255, 255);strokeColor=rgb(0, 0, 0);fontColor=rgb(0, 0, 0);" vertex="1" parent="Bu4tqk1s5aV7CT5vhAS4-2">
          <mxGeometry x="60" y="170" width="110" height="50" as="geometry" />
        </mxCell>
        <mxCell id="Bu4tqk1s5aV7CT5vhAS4-187" value="" style="edgeStyle=orthogonalEdgeStyle;rounded=0;orthogonalLoop=1;jettySize=auto;html=1;fontSize=13;" edge="1" parent="Bu4tqk1s5aV7CT5vhAS4-2" source="Bu4tqk1s5aV7CT5vhAS4-184" target="Bu4tqk1s5aV7CT5vhAS4-186">
          <mxGeometry relative="1" as="geometry" />
        </mxCell>
        <mxCell id="Bu4tqk1s5aV7CT5vhAS4-184" value="拉取&lt;a style=&quot;box-sizing: border-box; background-color: rgb(246, 248, 250); text-decoration-line: none; font-family: -apple-system, BlinkMacSystemFont, &amp;quot;Segoe UI&amp;quot;, Helvetica, Arial, sans-serif, &amp;quot;Apple Color Emoji&amp;quot;, &amp;quot;Segoe UI Emoji&amp;quot;; font-size: 13px; font-weight: 600; text-align: start;&quot; href=&quot;https://ghe.tusimple.io/TuSimple/cn-algo-data-platform-pipeline&quot; data-pjax=&quot;#repo-content-pjax-container&quot;&gt;cn-algo-data-platform-pipeline&lt;/a&gt;&amp;nbsp;repo" style="html=1;fillColor=rgb(255, 255, 255);strokeColor=rgb(0, 0, 0);fontColor=rgb(0, 0, 0);fontSize=13;" vertex="1" parent="Bu4tqk1s5aV7CT5vhAS4-2">
          <mxGeometry x="20" y="300" width="250" height="50" as="geometry" />
        </mxCell>
        <mxCell id="Bu4tqk1s5aV7CT5vhAS4-186" value="exec algo_pipeline_bundle" style="whiteSpace=wrap;html=1;fontSize=13;fillColor=rgb(255, 255, 255);strokeColor=rgb(0, 0, 0);fontColor=rgb(0, 0, 0);" vertex="1" parent="Bu4tqk1s5aV7CT5vhAS4-2">
          <mxGeometry x="60" y="420" width="175" height="55" as="geometry" />
        </mxCell>
        <mxCell id="Bu4tqk1s5aV7CT5vhAS4-163" value="&lt;b&gt;pipeline_main&lt;/b&gt;" style="whiteSpace=wrap;html=1;fillColor=rgb(255, 255, 255);strokeColor=rgb(0, 0, 0);fontColor=rgb(0, 0, 0);" vertex="1" parent="Bu4tqk1s5aV7CT5vhAS4-2">
          <mxGeometry x="87.5" y="535" width="120" height="60" as="geometry" />
        </mxCell>
        <mxCell id="Bu4tqk1s5aV7CT5vhAS4-166" value="&lt;b&gt;&lt;br&gt;pipelineRunner&lt;/b&gt;&lt;br&gt;&lt;ul&gt;&lt;li style=&quot;text-align: left;&quot;&gt;主要负责runner的调度&lt;/li&gt;&lt;li style=&quot;text-align: left;&quot;&gt;如果是run-local模式则在本地起多进程跑，否则用线程池在ecos上起pod运行&lt;/li&gt;&lt;/ul&gt;" style="whiteSpace=wrap;html=1;fillColor=rgb(255, 255, 255);strokeColor=rgb(0, 0, 0);fontColor=rgb(0, 0, 0);" vertex="1" parent="Bu4tqk1s5aV7CT5vhAS4-2">
          <mxGeometry x="13.129999999999995" y="645" width="268.75" height="100" as="geometry" />
        </mxCell>
        <mxCell id="Bu4tqk1s5aV7CT5vhAS4-167" value="" style="edgeStyle=orthogonalEdgeStyle;rounded=0;orthogonalLoop=1;jettySize=auto;html=1;" edge="1" parent="Bu4tqk1s5aV7CT5vhAS4-2" source="Bu4tqk1s5aV7CT5vhAS4-163" target="Bu4tqk1s5aV7CT5vhAS4-166">
          <mxGeometry relative="1" as="geometry" />
        </mxCell>
        <mxCell id="Bu4tqk1s5aV7CT5vhAS4-183" value="&lt;font style=&quot;font-size: 12px;&quot;&gt;pipelineRunner::get_runner_configs&lt;br style=&quot;font-size: 12px;&quot;&gt;&lt;ul&gt;&lt;li style=&quot;text-align: left;&quot;&gt;&lt;span style=&quot;background-color: initial;&quot;&gt;解析并填充yaml文件&lt;/span&gt;&lt;/li&gt;&lt;/ul&gt;&lt;/font&gt;" style="rounded=0;whiteSpace=wrap;html=1;fontSize=12;" vertex="1" parent="Bu4tqk1s5aV7CT5vhAS4-2">
          <mxGeometry x="40.00999999999999" y="795" width="215" height="70" as="geometry" />
        </mxCell>
        <mxCell id="Bu4tqk1s5aV7CT5vhAS4-157" value="&lt;span style=&quot;font-size: 15px;&quot;&gt;Ecos&lt;/span&gt;" style="swimlane;html=1;startSize=20;" vertex="1" parent="Bu4tqk1s5aV7CT5vhAS4-1">
          <mxGeometry x="310" y="40" width="380" height="980" as="geometry" />
        </mxCell>
        <mxCell id="Bu4tqk1s5aV7CT5vhAS4-177" value="新建一个Threadool，并发运行每一个pod任务" style="whiteSpace=wrap;html=1;fillColor=rgb(255, 255, 255);strokeColor=rgb(0, 0, 0);fontColor=rgb(0, 0, 0);" vertex="1" parent="Bu4tqk1s5aV7CT5vhAS4-157">
          <mxGeometry x="125" y="380" width="130.01" height="50" as="geometry" />
        </mxCell>
        <mxCell id="Bu4tqk1s5aV7CT5vhAS4-11" value="&lt;font style=&quot;font-size: 15px;&quot;&gt;Runner&lt;/font&gt;" style="swimlane;html=1;startSize=20;" vertex="1" parent="Bu4tqk1s5aV7CT5vhAS4-1">
          <mxGeometry x="690" y="40" width="250" height="980" as="geometry" />
        </mxCell>
        <mxCell id="Bu4tqk1s5aV7CT5vhAS4-170" value="" style="edgeStyle=orthogonalEdgeStyle;rounded=0;orthogonalLoop=1;jettySize=auto;html=1;" edge="1" parent="Bu4tqk1s5aV7CT5vhAS4-11" source="Bu4tqk1s5aV7CT5vhAS4-168" target="Bu4tqk1s5aV7CT5vhAS4-169">
          <mxGeometry relative="1" as="geometry" />
        </mxCell>
        <mxCell id="Bu4tqk1s5aV7CT5vhAS4-168" value="&lt;b&gt;data_runner::run_one_runner&lt;/b&gt;" style="whiteSpace=wrap;html=1;fillColor=rgb(255, 255, 255);strokeColor=rgb(0, 0, 0);fontColor=rgb(0, 0, 0);" vertex="1" parent="Bu4tqk1s5aV7CT5vhAS4-11">
          <mxGeometry x="31.5" y="650" width="187" height="60" as="geometry" />
        </mxCell>
        <mxCell id="Bu4tqk1s5aV7CT5vhAS4-169" value="&lt;b&gt;runner.run&lt;/b&gt;" style="whiteSpace=wrap;html=1;fillColor=rgb(255, 255, 255);strokeColor=rgb(0, 0, 0);fontColor=rgb(0, 0, 0);" vertex="1" parent="Bu4tqk1s5aV7CT5vhAS4-11">
          <mxGeometry x="65" y="740" width="120" height="60" as="geometry" />
        </mxCell>
        <mxCell id="Bu4tqk1s5aV7CT5vhAS4-63" value="Thread 1" style="swimlane;whiteSpace=wrap" vertex="1" parent="1">
          <mxGeometry x="20" y="1150" width="280" height="570" as="geometry" />
        </mxCell>
        <mxCell id="Bu4tqk1s5aV7CT5vhAS4-64" value="" style="ellipse;shape=startState;fillColor=#000000;strokeColor=#ff0000;" vertex="1" parent="Bu4tqk1s5aV7CT5vhAS4-63">
          <mxGeometry x="100" y="40" width="30" height="30" as="geometry" />
        </mxCell>
        <mxCell id="Bu4tqk1s5aV7CT5vhAS4-65" value="" style="edgeStyle=elbowEdgeStyle;elbow=horizontal;verticalAlign=bottom;endArrow=open;endSize=8;strokeColor=#FF0000;endFill=1;rounded=0" edge="1" parent="Bu4tqk1s5aV7CT5vhAS4-63" source="Bu4tqk1s5aV7CT5vhAS4-64" target="Bu4tqk1s5aV7CT5vhAS4-66">
          <mxGeometry x="100" y="40" as="geometry">
            <mxPoint x="115" y="110" as="targetPoint" />
          </mxGeometry>
        </mxCell>
        <mxCell id="Bu4tqk1s5aV7CT5vhAS4-66" value="idle" style="" vertex="1" parent="Bu4tqk1s5aV7CT5vhAS4-63">
          <mxGeometry x="60" y="110" width="110" height="50" as="geometry" />
        </mxCell>
        <mxCell id="Bu4tqk1s5aV7CT5vhAS4-67" value="user action" style="" vertex="1" parent="Bu4tqk1s5aV7CT5vhAS4-63">
          <mxGeometry x="60" y="220" width="110" height="50" as="geometry" />
        </mxCell>
        <mxCell id="Bu4tqk1s5aV7CT5vhAS4-68" value="" style="endArrow=open;strokeColor=#FF0000;endFill=1;rounded=0" edge="1" parent="Bu4tqk1s5aV7CT5vhAS4-63" source="Bu4tqk1s5aV7CT5vhAS4-66" target="Bu4tqk1s5aV7CT5vhAS4-67">
          <mxGeometry relative="1" as="geometry" />
        </mxCell>
        <mxCell id="Bu4tqk1s5aV7CT5vhAS4-69" value="post command" style="" vertex="1" parent="Bu4tqk1s5aV7CT5vhAS4-63">
          <mxGeometry x="60" y="325" width="110" height="50" as="geometry" />
        </mxCell>
        <mxCell id="Bu4tqk1s5aV7CT5vhAS4-70" value="" style="endArrow=open;strokeColor=#FF0000;endFill=1;rounded=0" edge="1" parent="Bu4tqk1s5aV7CT5vhAS4-63" source="Bu4tqk1s5aV7CT5vhAS4-67" target="Bu4tqk1s5aV7CT5vhAS4-69">
          <mxGeometry relative="1" as="geometry" />
        </mxCell>
        <mxCell id="Bu4tqk1s5aV7CT5vhAS4-71" value="" style="edgeStyle=elbowEdgeStyle;elbow=horizontal;strokeColor=#FF0000;endArrow=open;endFill=1;rounded=0" edge="1" parent="Bu4tqk1s5aV7CT5vhAS4-63" source="Bu4tqk1s5aV7CT5vhAS4-69" target="Bu4tqk1s5aV7CT5vhAS4-66">
          <mxGeometry width="100" height="100" relative="1" as="geometry">
            <mxPoint x="160" y="290" as="sourcePoint" />
            <mxPoint x="260" y="190" as="targetPoint" />
            <Array as="points">
              <mxPoint x="30" y="250" />
            </Array>
          </mxGeometry>
        </mxCell>
        <mxCell id="Bu4tqk1s5aV7CT5vhAS4-72" value="Thread 2" style="swimlane;whiteSpace=wrap" vertex="1" parent="1">
          <mxGeometry x="300" y="1150" width="280" height="570" as="geometry" />
        </mxCell>
        <mxCell id="Bu4tqk1s5aV7CT5vhAS4-73" value="" style="ellipse;shape=startState;fillColor=#000000;strokeColor=#ff0000;" vertex="1" parent="Bu4tqk1s5aV7CT5vhAS4-72">
          <mxGeometry x="60" y="40" width="30" height="30" as="geometry" />
        </mxCell>
        <mxCell id="Bu4tqk1s5aV7CT5vhAS4-74" value="" style="edgeStyle=elbowEdgeStyle;elbow=horizontal;verticalAlign=bottom;endArrow=open;endSize=8;strokeColor=#FF0000;endFill=1;rounded=0" edge="1" parent="Bu4tqk1s5aV7CT5vhAS4-72" source="Bu4tqk1s5aV7CT5vhAS4-73" target="Bu4tqk1s5aV7CT5vhAS4-75">
          <mxGeometry x="40" y="20" as="geometry">
            <mxPoint x="55" y="90" as="targetPoint" />
          </mxGeometry>
        </mxCell>
        <mxCell id="Bu4tqk1s5aV7CT5vhAS4-75" value="idle" style="" vertex="1" parent="Bu4tqk1s5aV7CT5vhAS4-72">
          <mxGeometry x="20" y="110" width="110" height="50" as="geometry" />
        </mxCell>
        <mxCell id="Bu4tqk1s5aV7CT5vhAS4-76" value="check for &#xa;new commands" style="" vertex="1" parent="Bu4tqk1s5aV7CT5vhAS4-72">
          <mxGeometry x="20" y="220" width="110" height="50" as="geometry" />
        </mxCell>
        <mxCell id="Bu4tqk1s5aV7CT5vhAS4-77" value="" style="endArrow=open;strokeColor=#FF0000;endFill=1;rounded=0" edge="1" parent="Bu4tqk1s5aV7CT5vhAS4-72" source="Bu4tqk1s5aV7CT5vhAS4-75" target="Bu4tqk1s5aV7CT5vhAS4-76">
          <mxGeometry relative="1" as="geometry" />
        </mxCell>
        <mxCell id="Bu4tqk1s5aV7CT5vhAS4-78" value="command queue" style="" vertex="1" parent="Bu4tqk1s5aV7CT5vhAS4-72">
          <mxGeometry x="20" y="325" width="110" height="50" as="geometry" />
        </mxCell>
        <mxCell id="Bu4tqk1s5aV7CT5vhAS4-79" value="" style="endArrow=open;strokeColor=#FF0000;endFill=1;rounded=0" edge="1" parent="Bu4tqk1s5aV7CT5vhAS4-72" source="Bu4tqk1s5aV7CT5vhAS4-76" target="Bu4tqk1s5aV7CT5vhAS4-78">
          <mxGeometry relative="1" as="geometry" />
        </mxCell>
        <mxCell id="Bu4tqk1s5aV7CT5vhAS4-80" value="queue empty" style="rhombus;fillColor=#ffffc0;strokeColor=#ff0000;" vertex="1" parent="Bu4tqk1s5aV7CT5vhAS4-72">
          <mxGeometry x="150" y="225" width="80" height="40" as="geometry" />
        </mxCell>
        <mxCell id="Bu4tqk1s5aV7CT5vhAS4-81" value="yes" style="edgeStyle=elbowEdgeStyle;elbow=horizontal;align=left;verticalAlign=bottom;endArrow=open;endSize=8;strokeColor=#FF0000;exitX=0.5;exitY=0;endFill=1;rounded=0;entryX=0.75;entryY=0.5;entryPerimeter=0" edge="1" parent="Bu4tqk1s5aV7CT5vhAS4-72" source="Bu4tqk1s5aV7CT5vhAS4-80" target="Bu4tqk1s5aV7CT5vhAS4-84">
          <mxGeometry x="-1" relative="1" as="geometry">
            <mxPoint x="160" y="150" as="targetPoint" />
            <Array as="points">
              <mxPoint x="190" y="180" />
            </Array>
          </mxGeometry>
        </mxCell>
        <mxCell id="Bu4tqk1s5aV7CT5vhAS4-82" value="no" style="edgeStyle=elbowEdgeStyle;elbow=horizontal;align=left;verticalAlign=top;endArrow=open;endSize=8;strokeColor=#FF0000;endFill=1;rounded=0" edge="1" parent="Bu4tqk1s5aV7CT5vhAS4-72" source="Bu4tqk1s5aV7CT5vhAS4-80" target="Bu4tqk1s5aV7CT5vhAS4-86">
          <mxGeometry x="-1" relative="1" as="geometry">
            <mxPoint x="190" y="305" as="targetPoint" />
          </mxGeometry>
        </mxCell>
        <mxCell id="Bu4tqk1s5aV7CT5vhAS4-83" value="" style="endArrow=open;strokeColor=#FF0000;endFill=1;rounded=0" edge="1" parent="Bu4tqk1s5aV7CT5vhAS4-72" source="Bu4tqk1s5aV7CT5vhAS4-76" target="Bu4tqk1s5aV7CT5vhAS4-80">
          <mxGeometry relative="1" as="geometry" />
        </mxCell>
        <mxCell id="Bu4tqk1s5aV7CT5vhAS4-84" value="" style="shape=line;strokeWidth=6;strokeColor=#ff0000;rotation=90" vertex="1" parent="Bu4tqk1s5aV7CT5vhAS4-72">
          <mxGeometry x="130" y="127.5" width="50" height="15" as="geometry" />
        </mxCell>
        <mxCell id="Bu4tqk1s5aV7CT5vhAS4-85" value="" style="edgeStyle=elbowEdgeStyle;elbow=horizontal;verticalAlign=bottom;endArrow=open;endSize=8;strokeColor=#FF0000;endFill=1;rounded=0" edge="1" parent="Bu4tqk1s5aV7CT5vhAS4-72" source="Bu4tqk1s5aV7CT5vhAS4-84" target="Bu4tqk1s5aV7CT5vhAS4-75">
          <mxGeometry x="130" y="90" as="geometry">
            <mxPoint x="230" y="140" as="targetPoint" />
          </mxGeometry>
        </mxCell>
        <mxCell id="Bu4tqk1s5aV7CT5vhAS4-86" value="dispatch&#xa;command&#xa;worker thread" style="" vertex="1" parent="Bu4tqk1s5aV7CT5vhAS4-72">
          <mxGeometry x="140" y="325" width="110" height="50" as="geometry" />
        </mxCell>
        <mxCell id="Bu4tqk1s5aV7CT5vhAS4-87" value="critical&#xa;section" style="shape=note;whiteSpace=wrap;size=17" vertex="1" parent="Bu4tqk1s5aV7CT5vhAS4-72">
          <mxGeometry x="105" y="490" width="100" height="50" as="geometry" />
        </mxCell>
        <mxCell id="Bu4tqk1s5aV7CT5vhAS4-88" value="" style="endArrow=none;strokeColor=#FF0000;endFill=0;rounded=0;dashed=1" edge="1" parent="Bu4tqk1s5aV7CT5vhAS4-72" source="Bu4tqk1s5aV7CT5vhAS4-78" target="Bu4tqk1s5aV7CT5vhAS4-87">
          <mxGeometry relative="1" as="geometry" />
        </mxCell>
        <mxCell id="Bu4tqk1s5aV7CT5vhAS4-89" value="" style="whiteSpace=wrap;strokeColor=#FF0000;fillColor=#FF0000" vertex="1" parent="Bu4tqk1s5aV7CT5vhAS4-72">
          <mxGeometry x="245" y="395" width="5" height="45" as="geometry" />
        </mxCell>
        <mxCell id="Bu4tqk1s5aV7CT5vhAS4-90" value="" style="edgeStyle=elbowEdgeStyle;elbow=horizontal;entryX=0;entryY=0.5;strokeColor=#FF0000;endArrow=open;endFill=1;rounded=0" edge="1" parent="Bu4tqk1s5aV7CT5vhAS4-72" source="Bu4tqk1s5aV7CT5vhAS4-86" target="Bu4tqk1s5aV7CT5vhAS4-89">
          <mxGeometry width="100" height="100" relative="1" as="geometry">
            <mxPoint x="60" y="480" as="sourcePoint" />
            <mxPoint x="160" y="380" as="targetPoint" />
            <Array as="points">
              <mxPoint x="195" y="400" />
            </Array>
          </mxGeometry>
        </mxCell>
        <mxCell id="Bu4tqk1s5aV7CT5vhAS4-91" value="Thread 3" style="swimlane;whiteSpace=wrap" vertex="1" parent="1">
          <mxGeometry x="580" y="1150" width="280" height="570" as="geometry" />
        </mxCell>
        <mxCell id="Bu4tqk1s5aV7CT5vhAS4-92" value="process&#xa;command" style="" vertex="1" parent="Bu4tqk1s5aV7CT5vhAS4-91">
          <mxGeometry x="90" y="405" width="110" height="50" as="geometry" />
        </mxCell>
        <mxCell id="Bu4tqk1s5aV7CT5vhAS4-93" value="" style="edgeStyle=elbowEdgeStyle;elbow=horizontal;strokeColor=#FF0000;endArrow=open;endFill=1;rounded=0;entryX=0.25;entryY=0.5;entryPerimeter=0" edge="1" parent="Bu4tqk1s5aV7CT5vhAS4-91" target="Bu4tqk1s5aV7CT5vhAS4-84">
          <mxGeometry width="100" height="100" relative="1" as="geometry">
            <mxPoint x="-30" y="410" as="sourcePoint" />
            <mxPoint x="-120" y="120" as="targetPoint" />
            <Array as="points">
              <mxPoint x="-10" y="135" />
            </Array>
          </mxGeometry>
        </mxCell>
        <mxCell id="Bu4tqk1s5aV7CT5vhAS4-94" value="" style="edgeStyle=none;strokeColor=#FF0000;endArrow=open;endFill=1;rounded=0" edge="1" parent="Bu4tqk1s5aV7CT5vhAS4-91" target="Bu4tqk1s5aV7CT5vhAS4-92">
          <mxGeometry width="100" height="100" relative="1" as="geometry">
            <mxPoint x="-30" y="429.5" as="sourcePoint" />
            <mxPoint x="90" y="429.5" as="targetPoint" />
          </mxGeometry>
        </mxCell>
        <mxCell id="Bu4tqk1s5aV7CT5vhAS4-95" value="" style="ellipse;shape=endState;fillColor=#000000;strokeColor=#ff0000" vertex="1" parent="Bu4tqk1s5aV7CT5vhAS4-91">
          <mxGeometry x="130" y="500" width="30" height="30" as="geometry" />
        </mxCell>
        <mxCell id="Bu4tqk1s5aV7CT5vhAS4-96" value="" style="endArrow=open;strokeColor=#FF0000;endFill=1;rounded=0" edge="1" parent="Bu4tqk1s5aV7CT5vhAS4-91" source="Bu4tqk1s5aV7CT5vhAS4-92" target="Bu4tqk1s5aV7CT5vhAS4-95">
          <mxGeometry relative="1" as="geometry" />
        </mxCell>
        <mxCell id="Bu4tqk1s5aV7CT5vhAS4-97" value="" style="endArrow=open;strokeColor=#FF0000;endFill=1;rounded=0" edge="1" parent="1" source="Bu4tqk1s5aV7CT5vhAS4-69" target="Bu4tqk1s5aV7CT5vhAS4-78">
          <mxGeometry relative="1" as="geometry" />
        </mxCell>
      </root>
    </mxGraphModel>
  </diagram>
</mxfile>
